<svg
  xmlns="http://www.w3.org/2000/svg"
  xmlns:xlink="http://www.w3.org/1999/xlink"
  viewBox="0 0 32 32"
>
  <path
    d="M5.77 26.136c0.125 0.125 0.289 0.187 0.452 0.187s0.328-0.063 0.453-0.188l9.147-9.158 9.147 9.158c0.125 0.125 0.289 0.188 0.453 0.188s0.328-0.063 0.452-0.187c0.25-0.25 0.25-0.655 0.001-0.905l-9.138-9.148 9.137-9.148c0.25-0.25 0.25-0.655-0.001-0.905s-0.655-0.25-0.905 0.001l-9.148 9.158-9.147-9.158c-0.25-0.25-0.655-0.25-0.905-0.001s-0.25 0.655-0.001 0.905l9.137 9.148-9.137 9.148c-0.25 0.25-0.25 0.655 0.001 0.905z"
  ></path>
</svg>
